<svg version="1.1" xmlns="http://www.w3.org/2000/svg" style="display: block;" viewBox="0 0 2000 2000" width="500" height="500" preserveAspectRatio="none">
<path transform="translate(0,0)" fill="rgb(4,59,133)" d="M 1162.43 731.067 C 1151.87 709.247 1145.89 680.441 1128.59 663.031 C 1115.81 650.177 1094.17 650.793 1077.65 645.721 L 1077.21 643.613 L 1078.6 641.887 C 1091.67 636.062 1156.2 641.934 1173.66 639.447 C 1177.96 638.834 1195.92 639.443 1200.89 640.187 C 1208.22 652.475 1225.95 697.732 1232.3 712.95 C 1252.33 761.669 1272.63 810.275 1293.2 858.765 C 1296.96 867.838 1312.69 908.093 1316.18 912.899 L 1322.7 905.21 C 1353.08 859.031 1387.98 825.735 1443.5 814.508 C 1539.68 795.061 1631.25 853.291 1648.44 951.297 C 1667.84 1061.95 1578.03 1160.45 1466.14 1152.06 C 1447.58 1153.1 1420 1152.19 1400.7 1152.2 L 1279.12 1152.06 C 1274.14 1152 1266.85 1152.2 1263.44 1148.71 L 1264.22 1146.91 C 1276.33 1137.65 1330.38 1153.44 1314.21 1099.74 C 1309.98 1085.7 1276.43 996.315 1269.72 990.853 L 1269.76 990.269 C 1268.44 987.517 1268.45 988.281 1264.78 986.721 L 1264.8 985.095 L 1263.47 983.908 C 1255.48 982.782 1245.6 984.007 1237.38 984 C 1183.85 983.953 1130.3 984.275 1076.78 983.456 C 1073.82 983.411 1069.09 983.654 1066.29 984.663 C 1064.5 985.779 1062.36 990.586 1061.58 992.471 C 1046.34 1029.02 1029.98 1066.11 1016.68 1103.31 C 1011.72 1117.19 1018.79 1129.56 1030.41 1136.29 C 1037.57 1140.43 1046.71 1141.16 1054.39 1144.15 C 1057.1 1145.28 1057.32 1146.09 1058.09 1148.57 C 1057.61 1149.59 1057.41 1150.72 1056.36 1151.26 C 1052.71 1153.13 956.046 1153.55 947.931 1151.58 C 945.54 1149.55 946.233 1150.78 945.629 1147.85 C 948.707 1142 958.008 1142.25 964.124 1140.04 C 999.039 1127.44 1008.78 1098.06 1021.5 1066.73 L 1044.08 1011.81 L 1117.78 835.602 C 1131.35 803.133 1147.55 762.107 1162.43 731.067 z M 1463.62 1142.81 C 1489.18 1146.29 1507.52 1142.9 1532.01 1134.95 C 1602.94 1111.93 1649.79 1038.75 1641.35 964.492 C 1631.15 874.674 1551.65 808.679 1460.39 819.638 C 1423.64 824.372 1389.51 841.176 1363.34 867.413 C 1351.58 879.422 1337.49 898.47 1326.79 912.212 L 1320.26 919.383 C 1319.05 929.084 1373.43 1046.87 1380.77 1068.16 C 1390.64 1096.75 1414.59 1141.36 1449.15 1140.58 C 1451.87 1140.75 1461.82 1141.8 1463.62 1142.81 z M 1068.42 975.025 C 1099.44 974.721 1137.64 974.245 1168.35 975.109 C 1196.01 975.155 1238.64 976.581 1264.93 974.979 C 1251.99 949.486 1172.75 747.737 1166 741.57 C 1159.48 754.58 1150.07 780.344 1143.92 795.002 L 1091.89 919.782 C 1085.93 934.108 1075.3 962.337 1068.42 975.025 z"/>
<path transform="translate(0,0)" fill="rgb(4,86,193)" d="M 1322.7 905.21 C 1353.08 859.031 1387.98 825.735 1443.5 814.508 C 1539.68 795.061 1631.25 853.291 1648.44 951.297 C 1667.84 1061.95 1578.03 1160.45 1466.14 1152.06 C 1462.91 1150.18 1462.48 1151.63 1460.15 1149.2 C 1463.76 1148.11 1469.9 1150.19 1474.73 1150.06 C 1487.34 1149.73 1502.23 1149.41 1514.57 1147.24 C 1517.56 1146.71 1517.19 1146.41 1521.21 1146.07 L 1522.22 1145.99 L 1521.46 1144.44 C 1513.31 1139.91 1511.38 1147.89 1503.93 1147 C 1500.03 1141.42 1490.77 1146.82 1484.28 1146.65 C 1480.37 1146.54 1475.54 1148.47 1471.41 1146.7 C 1469.15 1145.74 1466.49 1145.5 1464.13 1145.15 L 1463.62 1142.81 C 1489.18 1146.29 1507.52 1142.9 1532.01 1134.95 C 1602.94 1111.93 1649.79 1038.75 1641.35 964.492 C 1631.15 874.674 1551.65 808.679 1460.39 819.638 C 1423.64 824.372 1389.51 841.176 1363.34 867.413 C 1351.58 879.422 1337.49 898.47 1326.79 912.212 L 1320.26 919.383 C 1316.74 915.794 1317.24 917.272 1316.18 912.899 L 1322.7 905.21 z"/>
<path transform="translate(0,0)" fill="rgb(4,86,193)" d="M 680.207 766.891 C 691.689 764.089 705.807 763.872 717.579 763.327 C 737.505 762.62 758.567 765.91 764.012 788.357 C 767.719 803.636 755.839 819.062 741.301 820.375 C 711.699 823.049 700.32 794.933 717.8 773.191 C 718.328 772.537 718.866 771.891 719.412 771.252 C 696.876 773.792 677.782 775.592 655.736 780.964 C 581.803 798.98 513.703 843.309 466.994 903.471 C 409.593 977.405 389.216 1059.27 399.365 1151.24 C 409.829 1239.89 455.326 1320.67 525.713 1375.58 C 596.85 1432.27 687.851 1457.88 778.115 1446.59 C 849.573 1438.28 903.689 1408.57 959.483 1364.66 C 963.084 1361.82 969.189 1356.89 972.977 1354.54 C 981.004 1347.02 991.887 1338.53 1000.49 1330.9 C 1016.15 1316.86 1031.33 1302.31 1046.01 1287.25 C 1094.58 1237.67 1139.41 1175.76 1178.08 1118.15 C 1196.73 1089.82 1215.15 1061.35 1233.33 1032.72 C 1239.85 1022.56 1257.5 994.66 1264.78 986.721 C 1268.45 988.281 1268.44 987.517 1269.76 990.269 L 1269.72 990.853 C 1264.93 1000.31 1256.9 1012.17 1251.07 1021.33 L 1221.08 1068.69 C 1181.17 1131.85 1138.05 1196.37 1090.18 1253.74 C 1058 1292.31 1017.57 1329.6 979.512 1362.29 C 924.55 1405.89 883.936 1434.01 813.691 1449.86 C 626.593 1492.1 440.577 1377.94 397.107 1190.74 C 376.304 1099.93 391.901 1004.59 440.557 925.141 C 488.117 848.218 564.252 793.306 652.254 772.454 C 659.27 770.411 673.179 767.559 680.207 766.891 z"/>
<path transform="translate(0,0)" fill="rgb(10,103,201)" d="M 632.384 1204.39 C 643.878 1203.94 672.934 1204.66 666.426 1227.45 C 664.668 1233.6 656.014 1237.08 649.996 1238.97 C 655.994 1244.67 662.477 1251.38 665.255 1259.15 L 664.475 1260.67 C 657.245 1259.29 650.889 1248.91 646.638 1243.03 C 643.711 1240.22 640.812 1237.29 637.657 1234.75 C 637.733 1239.01 638.786 1256.78 636.366 1260.79 C 636.11 1261.21 634.396 1262.34 633.851 1262.71 C 630.292 1257.21 631.074 1212.52 632.384 1204.39 z M 637.568 1232.48 C 646.418 1232.99 649.705 1234 657.499 1229.97 C 670.649 1211.55 645.786 1212.34 637.725 1209.64 C 637.898 1217.71 637.941 1224.43 637.568 1232.48 z"/>
<path transform="translate(0,0)" fill="rgb(10,103,201)" d="M 542.762 1200.14 C 546.922 1211.57 564.971 1252.72 565.918 1260.77 L 564.897 1261.87 C 558.093 1258.6 556 1252.76 554.299 1245.84 L 554.037 1244.74 C 547.945 1245.95 536.351 1245.63 530.004 1245.19 C 527.569 1252.77 527.038 1256.08 521.465 1261.86 L 519.871 1261.42 C 519.467 1259.47 519.05 1256.95 519.791 1255.06 C 526.743 1237.27 534.999 1217.41 542.762 1200.14 z M 532.141 1239.78 C 537.555 1240.39 546.952 1241.65 551.962 1239.9 C 548.244 1230.84 545.19 1223.09 542.016 1213.76 C 539.333 1222.65 536.033 1231.35 532.141 1239.78 z"/>
<path transform="translate(0,0)" fill="rgb(4,86,193)" d="M 551.962 1239.9 C 553.254 1242.2 553.658 1242.32 554.037 1244.74 C 547.945 1245.95 536.351 1245.63 530.004 1245.19 C 530.545 1242.15 530.368 1242.25 532.141 1239.78 C 537.555 1240.39 546.952 1241.65 551.962 1239.9 z"/>
<path transform="translate(0,0)" fill="rgb(4,86,193)" d="M 846.097 1245.19 C 843.804 1250.29 842.641 1258.41 838.123 1260.93 L 836.04 1260.04 L 835.33 1257.72 C 837.137 1250.44 853.878 1209.78 857.541 1203.69 L 859.294 1203.53 L 861.526 1206.46 C 864.337 1215.7 867.893 1222.69 870.744 1231.19 C 873.465 1238.25 883.381 1255.54 881.551 1261.29 C 874.656 1263.24 872.078 1250.84 870.168 1245.54 C 862.914 1245.93 853.518 1245.4 846.097 1245.19 z M 848.251 1240.04 C 853.974 1240.35 862.39 1241.17 867.796 1240.01 C 866.4 1235.21 860.473 1221.19 858.16 1216.59 C 854.979 1221.94 850.7 1233.81 848.251 1240.04 z"/>
<path transform="translate(0,0)" fill="rgb(10,103,201)" d="M 861.526 1206.46 C 864.337 1215.7 867.893 1222.69 870.744 1231.19 C 868.613 1235.53 867.551 1235.9 867.796 1240.01 C 866.4 1235.21 860.473 1221.19 858.16 1216.59 L 858.058 1215.39 C 860.01 1211.59 860.437 1210.59 861.526 1206.46 z"/>
<path transform="translate(0,0)" fill="rgb(10,103,201)" d="M 945.646 1202.49 C 952.171 1205.34 971.422 1238 976.874 1246.07 C 977.109 1238.03 974.615 1209.07 979.479 1204.37 L 981.005 1205.05 C 984.972 1214.07 982.439 1229.05 983.194 1239.18 C 983.701 1246 983.633 1253.04 984.616 1259.92 C 984.976 1262.45 984.415 1262.49 982.938 1264.05 C 974.216 1253.27 960.298 1231.67 951.899 1219.73 C 952.743 1227.2 955.73 1257.96 950.248 1261.63 L 948.604 1259.98 C 944.528 1247.96 947.171 1229.04 946.475 1215.96 C 946.205 1210.9 945.599 1207.75 945.646 1202.49 z"/>
<path transform="translate(0,0)" fill="rgb(10,103,201)" d="M 750.295 1229.17 C 753.966 1223.65 765.741 1203.95 772.556 1205.05 C 772.144 1211.25 764.472 1219.43 760.368 1224.48 C 757.223 1228.45 756.042 1230.7 753.602 1235.09 C 753.817 1240.73 756.202 1259.72 750.23 1261.07 L 748.765 1259.89 C 747.398 1254.1 747.714 1241.77 746.924 1234.11 C 741.29 1225.29 730.519 1213.24 728.307 1203.68 C 739.409 1206.07 744.911 1219.73 750.295 1229.17 z"/>
<path transform="translate(0,0)" fill="rgb(0,0,0)" fill-opacity="0.0235294" d="M 1627.79 1083.2 C 1630.82 1085.68 1629.89 1084.18 1630.95 1087.68 C 1628.36 1092.18 1627.56 1088.4 1625.7 1093.65 L 1625.06 1095.1 L 1623.29 1094.48 C 1623.06 1092.01 1626.65 1086.8 1627.79 1083.2 z"/>
<path transform="translate(0,0)" fill="rgb(0,0,0)" fill-opacity="0.239216" d="M 407.22 1070.83 L 409.293 1073.02 C 410.14 1078.95 409.026 1081.81 406.344 1087.18 L 405.801 1087.5 C 404.335 1084.32 406.458 1074.75 407.22 1070.83 z"/>
</svg>