<?xml version="1.0" encoding="utf-8" ?>
<svg baseProfile="tiny" fill="none" height="100%" version="1.2" width="100%" xmlns="http://www.w3.org/2000/svg" xmlns:ev="http://www.w3.org/2001/xml-events" xmlns:xlink="http://www.w3.org/1999/xlink"><defs /><path d="M 426,184 L 425,185 L 425,187 L 424,188 L 424,189 L 423,190 L 423,191 L 422,192 L 422,193 L 421,194 L 421,195 L 420,196 L 420,197 L 419,198 L 419,199 L 418,200 L 418,201 L 417,202 L 417,203 L 416,204 L 416,205 L 415,206 L 415,208 L 414,209 L 414,210 L 413,211 L 413,212 L 412,213 L 412,215 L 413,216 L 413,217 L 415,219 L 415,220 L 416,221 L 416,222 L 417,223 L 417,224 L 419,226 L 419,227 L 420,228 L 420,229 L 421,230 L 421,231 L 423,233 L 423,234 L 424,235 L 424,236 L 426,238 L 426,239 L 427,240 L 427,241 L 428,242 L 428,243 L 430,245 L 430,246 L 431,247 L 431,248 L 432,249 L 432,250 L 434,252 L 434,253 L 435,254 L 435,255 L 436,256 L 436,257 L 438,259 L 438,260 L 439,261 L 439,262 L 440,263 L 440,264 L 442,266 L 442,267 L 443,268 L 443,269 L 444,270 L 444,271 L 446,273 L 446,274 L 447,275 L 447,276 L 449,278 L 449,279 L 450,280 L 450,281 L 451,282 L 451,283 L 453,285 L 453,286 L 454,287 L 454,288 L 455,289 L 455,290 L 457,292 L 457,293 L 458,294 L 458,295 L 459,296 L 459,297 L 461,299 L 461,300 L 462,301 L 462,302 L 463,303 L 463,304 L 465,306 L 465,307 L 466,308 L 466,309 L 468,311 L 468,312 L 469,313 L 469,314 L 470,315 L 470,316 L 472,318 L 472,319 L 473,320 L 473,321 L 474,322 L 474,323 L 476,325 L 476,326 L 477,327 L 477,328 L 478,329 L 478,330 L 480,332 L 480,333 L 481,334 L 481,335 L 483,337 L 483,338 L 484,339 L 484,340 L 485,341 L 485,342 L 487,344 L 487,345 L 488,346 L 488,347 L 489,348 L 489,349 L 491,351 L 491,352 L 492,353 L 492,354 L 493,355 L 493,356 L 495,358 L 495,359 L 494,360 L 447,360 L 445,358 L 445,357 L 443,355 L 443,354 L 442,353 L 442,352 L 441,351 L 441,350 L 439,348 L 439,347 L 438,346 L 438,345 L 437,344 L 437,343 L 435,341 L 435,340 L 434,339 L 434,338 L 433,337 L 433,336 L 431,334 L 431,333 L 430,332 L 430,331 L 429,330 L 429,329 L 427,327 L 427,326 L 426,325 L 426,324 L 424,322 L 424,321 L 423,320 L 423,319 L 422,318 L 422,317 L 421,316 L 421,315 L 419,313 L 419,312 L 418,311 L 418,310 L 417,309 L 417,308 L 415,306 L 415,305 L 414,304 L 414,303 L 412,301 L 412,300 L 411,299 L 411,298 L 410,297 L 410,296 L 408,294 L 408,293 L 407,292 L 407,291 L 406,290 L 406,289 L 405,288 L 405,287 L 403,285 L 403,284 L 402,283 L 402,282 L 400,280 L 400,279 L 399,278 L 399,277 L 398,276 L 398,275 L 396,273 L 396,272 L 395,271 L 395,270 L 394,269 L 394,268 L 392,266 L 392,265 L 391,264 L 391,263 L 390,262 L 389,262 L 388,263 L 388,264 L 387,265 L 387,266 L 386,267 L 386,268 L 385,269 L 385,270 L 383,272 L 383,273 L 382,274 L 382,275 L 381,276 L 381,277 L 380,278 L 380,279 L 379,280 L 379,281 L 378,282 L 378,283 L 377,284 L 377,285 L 376,286 L 376,287 L 375,288 L 375,290 L 376,291 L 376,292 L 377,293 L 377,294 L 378,295 L 378,296 L 380,298 L 380,299 L 381,300 L 381,301 L 382,302 L 382,303 L 384,305 L 384,306 L 385,307 L 385,308 L 386,309 L 386,310 L 388,312 L 388,313 L 389,314 L 389,315 L 390,316 L 390,317 L 392,319 L 392,320 L 393,321 L 393,322 L 394,323 L 394,324 L 396,326 L 396,327 L 397,328 L 397,329 L 398,330 L 398,331 L 400,333 L 400,334 L 401,335 L 401,336 L 402,337 L 402,338 L 404,340 L 404,341 L 405,342 L 405,343 L 406,344 L 406,345 L 408,347 L 408,348 L 409,349 L 409,350 L 411,352 L 411,353 L 412,354 L 412,355 L 413,356 L 413,357 L 414,358 L 414,359 L 416,361 L 416,362 L 417,363 L 417,364 L 418,365 L 418,366 L 420,368 L 420,369 L 421,370 L 421,371 L 423,373 L 423,374 L 424,375 L 424,376 L 425,377 L 425,378 L 427,380 L 427,381 L 428,382 L 428,383 L 429,384 L 429,385 L 431,387 L 540,387 L 431,387 L 430,386 L 430,385 L 428,383 L 428,382 L 427,381 L 427,380 L 426,379 L 426,378 L 424,376 L 424,375 L 423,374 L 423,373 L 422,372 L 422,371 L 420,369 L 420,368 L 419,367 L 419,366 L 417,364 L 417,363 L 416,362 L 416,361 L 415,360 L 415,359 L 413,357 L 413,356 L 412,355 L 412,354 L 411,353 L 411,352 L 410,351 L 410,350 L 408,348 L 408,347 L 407,346 L 407,345 L 405,343 L 405,342 L 404,341 L 404,340 L 403,339 L 403,338 L 401,336 L 401,335 L 400,334 L 400,333 L 399,332 L 399,331 L 397,329 L 397,328 L 396,327 L 396,326 L 395,325 L 395,324 L 393,322 L 393,321 L 392,320 L 392,319 L 391,318 L 391,317 L 389,315 L 389,314 L 388,313 L 388,312 L 387,311 L 387,310 L 385,308 L 385,307 L 384,306 L 384,305 L 383,304 L 383,303 L 381,301 L 381,300 L 380,299 L 380,298 L 379,297 L 379,296 L 377,294 L 377,293 L 376,292 L 376,291 L 375,290 L 375,288 L 376,287 L 376,286 L 377,285 L 377,284 L 378,283 L 378,282 L 379,281 L 379,280 L 380,279 L 380,278 L 381,277 L 381,276 L 382,275 L 382,274 L 384,272 L 384,271 L 385,270 L 385,269 L 386,268 L 386,267 L 387,266 L 387,265 L 388,264 L 388,263 L 389,262 L 390,262 L 391,263 L 391,264 L 392,265 L 392,266 L 393,267 L 393,268 L 395,270 L 395,271 L 396,272 L 396,273 L 397,274 L 397,275 L 399,277 L 399,278 L 400,279 L 400,280 L 401,281 L 401,282 L 403,284 L 403,285 L 404,286 L 404,287 L 406,289 L 406,290 L 407,291 L 407,292 L 408,293 L 408,294 L 409,295 L 409,296 L 411,298 L 411,299 L 412,300 L 412,301 L 413,302 L 413,303 L 415,305 L 415,306 L 416,307 L 416,308 L 418,310 L 418,311 L 419,312 L 419,313 L 420,314 L 420,315 L 422,317 L 422,318 L 423,319 L 423,320 L 424,321 L 424,322 L 425,323 L 425,324 L 427,326 L 427,327 L 428,328 L 428,329 L 430,331 L 430,332 L 431,333 L 431,334 L 432,335 L 432,336 L 434,338 L 434,339 L 435,340 L 435,341 L 436,342 L 436,343 L 438,345 L 438,346 L 439,347 L 439,348 L 440,349 L 440,350 L 442,352 L 442,353 L 443,354 L 443,355 L 444,356 L 444,357 L 446,359 L 446,360 L 495,360 L 495,358 L 494,357 L 494,356 L 492,354 L 492,353 L 491,352 L 491,351 L 490,350 L 490,349 L 488,347 L 488,346 L 487,345 L 487,344 L 486,343 L 486,342 L 484,340 L 484,339 L 483,338 L 483,337 L 482,336 L 482,335 L 480,333 L 480,332 L 479,331 L 479,330 L 477,328 L 477,327 L 476,326 L 476,325 L 475,324 L 475,323 L 473,321 L 473,320 L 472,319 L 472,318 L 471,317 L 471,316 L 469,314 L 469,313 L 468,312 L 468,311 L 467,310 L 467,309 L 465,307 L 465,306 L 464,305 L 464,304 L 462,302 L 462,301 L 461,300 L 461,299 L 460,298 L 460,297 L 458,295 L 458,294 L 457,293 L 457,292 L 456,291 L 456,290 L 454,288 L 454,287 L 453,286 L 453,285 L 452,284 L 452,283 L 450,281 L 450,280 L 449,279 L 449,278 L 448,277 L 448,276 L 446,274 L 446,273 L 445,272 L 445,271 L 443,269 L 443,268 L 442,267 L 442,266 L 441,265 L 441,264 L 439,262 L 439,261 L 438,260 L 438,259 L 437,258 L 437,257 L 435,255 L 435,254 L 434,253 L 434,252 L 433,251 L 433,250 L 431,248 L 431,247 L 430,246 L 430,245 L 429,244 L 429,243 L 427,241 L 427,240 L 426,239 L 426,238 L 425,237 L 425,236 L 423,234 L 423,233 L 422,232 L 422,231 L 420,229 L 420,228 L 419,227 L 419,226 L 418,225 L 418,224 L 416,222 L 416,221 L 415,220 L 415,219 L 414,218 L 414,217 L 412,215 L 412,213 L 413,212 L 413,211 L 414,210 L 414,209 L 415,208 L 415,206 L 416,205 L 416,204 L 417,203 L 417,202 L 418,201 L 418,200 L 419,199 L 419,198 L 420,197 L 420,196 L 421,195 L 421,194 L 422,193 L 422,192 L 423,191 L 423,190 L 424,189 L 424,188 L 425,187 L 425,185 L 426,184 L 427,185 L 427,187 L 429,189 L 429,190 L 430,191 L 430,192 L 431,193 L 431,194 L 432,195 L 432,196 L 434,198 L 434,199 L 435,200 L 435,201 L 437,203 L 437,204 L 438,205 L 438,206 L 439,207 L 439,208 L 441,210 L 441,211 L 442,212 L 442,213 L 443,214 L 443,215 L 445,217 L 445,218 L 446,219 L 446,220 L 447,221 L 447,222 L 449,224 L 449,225 L 450,226 L 450,227 L 451,228 L 451,229 L 453,231 L 453,232 L 454,233 L 454,234 L 455,235 L 455,236 L 457,238 L 457,239 L 458,240 L 458,241 L 460,243 L 460,244 L 461,245 L 461,246 L 462,247 L 462,248 L 464,250 L 464,251 L 465,252 L 465,253 L 466,254 L 466,255 L 468,257 L 468,258 L 469,259 L 469,260 L 470,261 L 470,262 L 472,264 L 472,265 L 473,266 L 473,267 L 475,269 L 475,270 L 476,271 L 476,272 L 477,273 L 477,274 L 479,276 L 479,277 L 480,278 L 480,279 L 481,280 L 481,281 L 483,283 L 483,284 L 484,285 L 484,286 L 485,287 L 485,288 L 487,290 L 487,291 L 488,292 L 488,293 L 489,294 L 489,295 L 491,297 L 491,298 L 492,299 L 492,300 L 494,302 L 494,303 L 495,304 L 495,305 L 496,306 L 496,307 L 497,308 L 497,309 L 499,311 L 499,312 L 500,313 L 500,314 L 501,315 L 501,316 L 503,318 L 503,319 L 504,320 L 504,321 L 506,323 L 506,324 L 507,325 L 507,326 L 508,327 L 508,328 L 510,330 L 510,331 L 511,332 L 511,333 L 513,335 L 513,336 L 514,337 L 514,338 L 515,339 L 515,340 L 516,341 L 516,342 L 518,344 L 518,345 L 519,346 L 519,347 L 521,349 L 521,350 L 522,351 L 522,352 L 523,353 L 523,354 L 525,356 L 525,357 L 526,358 L 526,359 L 527,360 L 527,361 L 529,363 L 529,364 L 530,365 L 530,366 L 531,367 L 531,368 L 533,370 L 533,371 L 534,372 L 534,373 L 535,374 L 535,375 L 537,377 L 537,378 L 538,379 L 538,380 L 540,382 L 540,383 L 541,384 L 541,385 L 542,386 L 541,385 L 541,384 L 540,383 L 540,382 L 539,381 L 539,380 L 537,378 L 537,377 L 536,376 L 536,375 L 534,373 L 534,372 L 533,371 L 533,370 L 532,369 L 532,368 L 530,366 L 530,365 L 529,364 L 529,363 L 528,362 L 528,361 L 526,359 L 526,358 L 525,357 L 525,356 L 524,355 L 524,354 L 522,352 L 522,351 L 521,350 L 521,349 L 520,348 L 520,347 L 518,345 L 518,344 L 517,343 L 517,342 L 515,340 L 515,339 L 514,338 L 514,337 L 513,336 L 513,335 L 512,334 L 512,333 L 510,331 L 510,330 L 509,329 L 509,328 L 507,326 L 507,325 L 506,324 L 506,323 L 505,322 L 505,321 L 503,319 L 503,318 L 502,317 L 502,316 L 500,314 L 500,313 L 499,312 L 499,311 L 498,310 L 498,309 L 496,307 L 496,306 L 495,305 L 495,304 L 494,303 L 494,302 L 493,301 L 493,300 L 491,298 L 491,297 L 490,296 L 490,295 L 488,293 L 488,292 L 487,291 L 487,290 L 486,289 L 486,288 L 484,286 L 484,285 L 483,284 L 483,283 L 482,282 L 482,281 L 480,279 L 480,278 L 479,277 L 479,276 L 478,275 L 478,274 L 476,272 L 476,271 L 475,270 L 475,269 L 474,268 L 474,267 L 472,265 L 472,264 L 471,263 L 471,262 L 469,260 L 469,259 L 468,258 L 468,257 L 467,256 L 467,255 L 465,253 L 465,252 L 464,251 L 464,250 L 463,249 L 463,248 L 461,246 L 461,245 L 460,244 L 460,243 L 459,242 L 459,241 L 457,239 L 457,238 L 456,237 L 456,236 L 454,234 L 454,233 L 453,232 L 453,231 L 452,230 L 452,229 L 450,227 L 450,226 L 449,225 L 449,224 L 448,223 L 448,222 L 446,220 L 446,219 L 445,218 L 445,217 L 444,216 L 444,215 L 442,213 L 442,212 L 441,211 L 441,210 L 440,209 L 440,208 L 438,206 L 438,205 L 437,204 L 437,203 L 436,202 L 436,201 L 434,199 L 434,198 L 433,197 L 433,196 L 431,194 L 431,193 L 430,192 L 430,191 L 429,190 L 429,189 L 428,188 L 428,187 L 427,186 L 427,185 Z" fill="none" stroke="blue" stroke-width="3" /><path d="M 358,123 L 357,124 L 357,125 L 356,126 L 356,127 L 354,129 L 354,130 L 353,131 L 353,132 L 352,133 L 352,134 L 350,136 L 350,137 L 349,138 L 349,139 L 348,140 L 348,141 L 346,143 L 346,144 L 345,145 L 345,146 L 344,147 L 344,148 L 342,150 L 342,151 L 341,152 L 341,153 L 340,154 L 340,155 L 338,157 L 338,158 L 337,159 L 337,160 L 336,161 L 336,162 L 334,164 L 334,165 L 333,166 L 333,167 L 332,168 L 332,169 L 330,171 L 330,172 L 329,173 L 329,174 L 328,175 L 328,176 L 326,178 L 326,179 L 325,180 L 325,181 L 324,182 L 324,183 L 322,185 L 322,186 L 321,187 L 321,188 L 320,189 L 320,190 L 318,192 L 318,193 L 317,194 L 317,195 L 316,196 L 316,197 L 314,199 L 314,200 L 313,201 L 313,202 L 312,203 L 312,204 L 310,206 L 310,207 L 309,208 L 309,209 L 308,210 L 308,211 L 306,213 L 306,214 L 305,215 L 305,216 L 304,217 L 304,218 L 302,220 L 302,221 L 301,222 L 301,223 L 300,224 L 300,225 L 298,227 L 298,228 L 297,229 L 297,230 L 296,231 L 296,232 L 294,234 L 294,235 L 293,236 L 293,237 L 292,238 L 292,239 L 290,241 L 290,242 L 289,243 L 289,244 L 288,245 L 288,246 L 286,248 L 286,249 L 285,250 L 285,251 L 284,252 L 284,253 L 282,255 L 282,256 L 281,257 L 281,258 L 280,259 L 280,260 L 278,262 L 278,263 L 277,264 L 277,265 L 276,266 L 276,267 L 274,269 L 274,270 L 273,271 L 273,272 L 272,273 L 272,274 L 270,276 L 270,277 L 269,278 L 269,279 L 268,280 L 268,281 L 266,283 L 266,284 L 265,285 L 265,286 L 264,287 L 264,288 L 263,289 L 263,290 L 261,292 L 261,293 L 260,294 L 260,295 L 258,297 L 258,298 L 257,299 L 257,300 L 256,301 L 256,302 L 255,303 L 255,304 L 253,306 L 253,307 L 252,308 L 252,309 L 250,311 L 250,312 L 249,313 L 249,314 L 248,315 L 248,316 L 247,317 L 247,318 L 245,320 L 245,321 L 244,322 L 244,323 L 243,324 L 243,325 L 241,327 L 241,328 L 240,329 L 240,330 L 239,331 L 239,332 L 237,334 L 237,335 L 236,336 L 236,337 L 235,338 L 235,339 L 233,341 L 233,342 L 232,343 L 232,344 L 231,345 L 231,346 L 229,348 L 229,349 L 228,350 L 228,351 L 227,352 L 227,353 L 225,355 L 225,356 L 224,357 L 224,358 L 223,359 L 223,360 L 222,361 L 222,362 L 220,364 L 220,365 L 219,366 L 219,367 L 218,368 L 218,369 L 216,371 L 216,372 L 215,373 L 215,374 L 214,375 L 214,376 L 212,378 L 212,379 L 211,380 L 211,381 L 210,382 L 210,383 L 209,384 L 209,385 L 207,387 L 207,388 L 206,389 L 176,389 L 206,389 L 208,387 L 208,386 L 209,385 L 209,384 L 210,383 L 210,382 L 211,381 L 211,380 L 213,378 L 213,377 L 214,376 L 214,375 L 215,374 L 215,373 L 217,371 L 217,370 L 218,369 L 218,368 L 219,367 L 219,366 L 221,364 L 221,363 L 222,362 L 222,361 L 223,360 L 223,359 L 224,358 L 224,357 L 226,355 L 226,354 L 227,353 L 227,352 L 228,351 L 228,350 L 230,348 L 230,347 L 231,346 L 231,345 L 232,344 L 232,343 L 234,341 L 234,340 L 235,339 L 235,338 L 236,337 L 236,336 L 238,334 L 238,333 L 239,332 L 239,331 L 240,330 L 240,329 L 242,327 L 242,326 L 243,325 L 243,324 L 244,323 L 244,322 L 246,320 L 246,319 L 247,318 L 247,317 L 248,316 L 248,315 L 249,314 L 249,313 L 251,311 L 251,310 L 252,309 L 252,308 L 254,306 L 254,305 L 255,304 L 255,303 L 256,302 L 256,301 L 257,300 L 257,299 L 259,297 L 259,296 L 260,295 L 260,294 L 262,292 L 262,291 L 263,290 L 263,289 L 264,288 L 264,287 L 265,286 L 265,285 L 267,283 L 267,282 L 268,281 L 268,280 L 269,279 L 269,278 L 271,276 L 271,275 L 272,274 L 272,273 L 273,272 L 273,271 L 275,269 L 275,268 L 276,267 L 276,266 L 277,265 L 277,264 L 279,262 L 279,261 L 280,260 L 280,259 L 281,258 L 281,257 L 283,255 L 283,254 L 284,253 L 284,252 L 285,251 L 285,250 L 287,248 L 287,247 L 288,246 L 288,245 L 289,244 L 289,243 L 291,241 L 291,240 L 292,239 L 292,238 L 293,237 L 293,236 L 295,234 L 295,233 L 296,232 L 296,231 L 297,230 L 297,229 L 299,227 L 299,226 L 300,225 L 300,224 L 301,223 L 301,222 L 303,220 L 303,219 L 304,218 L 304,217 L 305,216 L 305,215 L 307,213 L 307,212 L 308,211 L 308,210 L 309,209 L 309,208 L 311,206 L 311,205 L 312,204 L 312,203 L 313,202 L 313,201 L 315,199 L 315,198 L 316,197 L 316,196 L 317,195 L 317,194 L 319,192 L 319,191 L 320,190 L 320,189 L 321,188 L 321,187 L 323,185 L 323,184 L 324,183 L 324,182 L 325,181 L 325,180 L 327,178 L 327,177 L 328,176 L 328,175 L 329,174 L 329,173 L 331,171 L 331,170 L 332,169 L 332,168 L 333,167 L 333,166 L 335,164 L 335,163 L 336,162 L 336,161 L 337,160 L 337,159 L 339,157 L 339,156 L 340,155 L 340,154 L 341,153 L 341,152 L 343,150 L 343,149 L 344,148 L 344,147 L 345,146 L 345,145 L 347,143 L 347,142 L 348,141 L 348,140 L 349,139 L 349,138 L 351,136 L 351,135 L 352,134 L 352,133 L 353,132 L 353,131 L 355,129 L 355,128 L 356,127 L 356,126 L 357,125 L 357,124 L 358,123 L 359,123 L 360,124 L 360,125 L 362,127 L 362,128 L 363,129 L 363,130 L 365,132 L 365,133 L 366,134 L 366,135 L 367,136 L 367,137 L 369,139 L 369,140 L 370,141 L 370,142 L 371,143 L 371,144 L 373,146 L 373,147 L 374,148 L 374,149 L 375,150 L 375,151 L 377,153 L 377,154 L 378,155 L 378,156 L 379,157 L 379,158 L 381,160 L 381,161 L 382,162 L 382,163 L 384,165 L 384,166 L 385,167 L 385,168 L 386,169 L 386,170 L 388,172 L 388,173 L 389,174 L 389,175 L 390,176 L 390,177 L 392,179 L 392,180 L 393,181 L 393,182 L 394,183 L 394,184 L 396,186 L 396,187 L 396,186 L 395,185 L 395,184 L 393,182 L 393,181 L 392,180 L 392,179 L 391,178 L 391,177 L 389,175 L 389,174 L 388,173 L 388,172 L 387,171 L 387,170 L 385,168 L 385,167 L 384,166 L 384,165 L 383,164 L 383,163 L 381,161 L 381,160 L 380,159 L 380,158 L 378,156 L 378,155 L 377,154 L 377,153 L 376,152 L 376,151 L 374,149 L 374,148 L 373,147 L 373,146 L 372,145 L 372,144 L 370,142 L 370,141 L 369,140 L 369,139 L 368,138 L 368,137 L 366,135 L 366,134 L 365,133 L 365,132 L 364,131 L 364,130 L 362,128 L 362,127 L 361,126 L 361,125 L 359,123 Z" fill="none" stroke="blue" stroke-width="3" /><path d="M 358,68 L 358,69 L 357,70 L 357,71 L 355,73 L 355,74 L 354,75 L 354,76 L 353,77 L 353,78 L 351,80 L 351,81 L 350,82 L 350,83 L 349,84 L 349,85 L 347,87 L 347,88 L 346,89 L 346,90 L 345,91 L 345,92 L 343,94 L 343,95 L 342,96 L 342,97 L 341,98 L 341,99 L 339,101 L 339,102 L 338,103 L 338,104 L 336,106 L 336,107 L 335,108 L 335,109 L 334,110 L 334,111 L 332,113 L 332,114 L 331,115 L 331,116 L 330,117 L 330,118 L 328,120 L 328,121 L 327,122 L 327,123 L 326,124 L 326,125 L 324,127 L 324,128 L 323,129 L 323,130 L 321,132 L 321,133 L 320,134 L 320,135 L 319,136 L 319,137 L 317,139 L 317,140 L 316,141 L 316,142 L 315,143 L 315,144 L 313,146 L 313,147 L 312,148 L 312,149 L 310,151 L 310,152 L 309,153 L 309,154 L 308,155 L 308,156 L 307,157 L 307,158 L 305,160 L 305,161 L 304,162 L 304,163 L 302,165 L 302,166 L 301,167 L 301,168 L 300,169 L 300,170 L 298,172 L 298,173 L 297,174 L 297,175 L 296,176 L 296,177 L 294,179 L 294,180 L 293,181 L 293,182 L 292,183 L 292,184 L 290,186 L 290,187 L 289,188 L 289,189 L 288,190 L 288,191 L 286,193 L 286,194 L 285,195 L 285,196 L 284,197 L 284,198 L 282,200 L 282,201 L 281,202 L 281,203 L 280,204 L 280,205 L 278,207 L 278,208 L 277,209 L 277,210 L 275,212 L 275,213 L 274,214 L 274,215 L 273,216 L 273,217 L 271,219 L 271,220 L 270,221 L 270,222 L 269,223 L 269,224 L 267,226 L 267,227 L 266,228 L 266,229 L 264,231 L 264,232 L 263,233 L 263,234 L 262,235 L 262,236 L 260,238 L 260,239 L 259,240 L 259,241 L 258,242 L 258,243 L 256,245 L 256,246 L 255,247 L 255,248 L 254,249 L 254,250 L 252,252 L 252,253 L 251,254 L 251,255 L 250,256 L 250,257 L 248,259 L 248,260 L 247,261 L 247,262 L 246,263 L 246,264 L 244,266 L 244,267 L 243,268 L 243,269 L 241,271 L 241,272 L 240,273 L 240,274 L 239,275 L 239,276 L 237,278 L 237,279 L 236,280 L 236,281 L 235,282 L 235,283 L 233,285 L 233,286 L 232,287 L 232,288 L 231,289 L 231,290 L 229,292 L 229,293 L 228,294 L 228,295 L 227,296 L 227,297 L 225,299 L 225,300 L 224,301 L 224,302 L 223,303 L 223,304 L 221,306 L 221,307 L 220,308 L 220,309 L 218,311 L 218,312 L 217,313 L 217,314 L 216,315 L 216,316 L 214,318 L 214,319 L 213,320 L 213,321 L 212,322 L 212,323 L 210,325 L 210,326 L 209,327 L 209,328 L 208,329 L 208,330 L 206,332 L 206,333 L 205,334 L 205,335 L 204,336 L 204,337 L 202,339 L 202,340 L 201,341 L 201,342 L 200,343 L 200,344 L 198,346 L 198,347 L 197,348 L 197,349 L 195,351 L 195,352 L 194,353 L 194,354 L 193,355 L 193,356 L 191,358 L 191,359 L 190,360 L 190,361 L 189,362 L 189,363 L 187,365 L 187,366 L 186,367 L 186,368 L 185,369 L 185,370 L 183,372 L 183,373 L 182,374 L 182,375 L 181,376 L 181,377 L 179,379 L 179,380 L 178,381 L 178,382 L 176,384 L 176,385 L 175,386 L 175,387 L 174,388 L 174,389 L 174,388 L 175,387 L 175,386 L 177,384 L 177,383 L 178,382 L 178,381 L 180,379 L 180,378 L 181,377 L 181,376 L 182,375 L 182,374 L 184,372 L 184,371 L 185,370 L 185,369 L 186,368 L 186,367 L 188,365 L 188,364 L 189,363 L 189,362 L 190,361 L 190,360 L 192,358 L 192,357 L 193,356 L 193,355 L 194,354 L 194,353 L 196,351 L 196,350 L 197,349 L 197,348 L 199,346 L 199,345 L 200,344 L 200,343 L 201,342 L 201,341 L 203,339 L 203,338 L 204,337 L 204,336 L 205,335 L 205,334 L 207,332 L 207,331 L 208,330 L 208,329 L 209,328 L 209,327 L 211,325 L 211,324 L 212,323 L 212,322 L 213,321 L 213,320 L 215,318 L 215,317 L 216,316 L 216,315 L 217,314 L 217,313 L 219,311 L 219,310 L 220,309 L 220,308 L 222,306 L 222,305 L 223,304 L 223,303 L 224,302 L 224,301 L 226,299 L 226,298 L 227,297 L 227,296 L 228,295 L 228,294 L 230,292 L 230,291 L 231,290 L 231,289 L 232,288 L 232,287 L 234,285 L 234,284 L 235,283 L 235,282 L 236,281 L 236,280 L 238,278 L 238,277 L 239,276 L 239,275 L 240,274 L 240,273 L 242,271 L 242,270 L 243,269 L 243,268 L 245,266 L 245,265 L 246,264 L 246,263 L 247,262 L 247,261 L 249,259 L 249,258 L 250,257 L 250,256 L 251,255 L 251,254 L 253,252 L 253,251 L 254,250 L 254,249 L 255,248 L 255,247 L 257,245 L 257,244 L 258,243 L 258,242 L 259,241 L 259,240 L 261,238 L 261,237 L 262,236 L 262,235 L 263,234 L 263,233 L 265,231 L 265,230 L 266,229 L 266,228 L 268,226 L 268,225 L 269,224 L 269,223 L 270,222 L 270,221 L 272,219 L 272,218 L 273,217 L 273,216 L 274,215 L 274,214 L 276,212 L 276,211 L 277,210 L 277,209 L 279,207 L 279,206 L 280,205 L 280,204 L 281,203 L 281,202 L 283,200 L 283,199 L 284,198 L 284,197 L 285,196 L 285,195 L 287,193 L 287,192 L 288,191 L 288,190 L 289,189 L 289,188 L 291,186 L 291,185 L 292,184 L 292,183 L 293,182 L 293,181 L 295,179 L 295,178 L 296,177 L 296,176 L 297,175 L 297,174 L 299,172 L 299,171 L 300,170 L 300,169 L 301,168 L 301,167 L 303,165 L 303,164 L 304,163 L 304,162 L 306,160 L 306,159 L 307,158 L 307,157 L 308,156 L 308,155 L 309,154 L 309,153 L 311,151 L 311,150 L 312,149 L 312,148 L 314,146 L 314,145 L 315,144 L 315,143 L 316,142 L 316,141 L 318,139 L 318,138 L 319,137 L 319,136 L 320,135 L 320,134 L 322,132 L 322,131 L 323,130 L 323,129 L 325,127 L 325,126 L 326,125 L 326,124 L 327,123 L 327,122 L 329,120 L 329,119 L 330,118 L 330,117 L 331,116 L 331,115 L 333,113 L 333,112 L 334,111 L 334,110 L 335,109 L 335,108 L 337,106 L 337,105 L 338,104 L 338,103 L 340,101 L 340,100 L 341,99 L 341,98 L 342,97 L 342,96 L 344,94 L 344,93 L 345,92 L 345,91 L 346,90 L 346,89 L 348,87 L 348,86 L 349,85 L 349,84 L 350,83 L 350,82 L 352,80 L 352,79 L 353,78 L 353,77 L 354,76 L 354,75 L 356,73 L 356,72 L 357,71 L 357,70 L 359,68 L 360,69 L 360,70 L 361,71 L 361,72 L 362,73 L 362,74 L 363,75 L 363,76 L 365,78 L 365,79 L 366,80 L 366,81 L 367,82 L 367,83 L 369,85 L 369,86 L 370,87 L 370,88 L 372,90 L 372,91 L 373,92 L 373,93 L 374,94 L 374,95 L 376,97 L 376,98 L 377,99 L 377,100 L 378,101 L 378,102 L 380,104 L 380,105 L 381,106 L 381,107 L 382,108 L 382,109 L 384,111 L 384,112 L 385,113 L 385,114 L 386,115 L 386,116 L 388,118 L 388,119 L 389,120 L 389,121 L 390,122 L 390,123 L 392,125 L 392,126 L 393,127 L 393,128 L 395,130 L 395,131 L 396,132 L 396,133 L 397,134 L 397,135 L 399,137 L 399,138 L 400,139 L 400,140 L 401,141 L 401,142 L 403,144 L 403,145 L 404,146 L 404,147 L 406,149 L 406,150 L 407,151 L 407,152 L 408,153 L 408,154 L 409,155 L 409,156 L 410,157 L 410,161 L 409,162 L 409,163 L 408,164 L 408,165 L 407,166 L 407,167 L 406,168 L 406,169 L 405,170 L 405,171 L 404,172 L 404,173 L 403,174 L 403,175 L 402,176 L 402,177 L 401,178 L 401,179 L 400,180 L 400,181 L 399,182 L 399,183 L 398,184 L 398,186 L 398,184 L 399,183 L 399,182 L 400,181 L 400,180 L 401,179 L 401,178 L 402,177 L 402,176 L 403,175 L 403,174 L 404,173 L 404,172 L 405,171 L 405,170 L 406,169 L 406,168 L 407,167 L 407,166 L 408,165 L 408,164 L 409,163 L 409,162 L 410,161 L 410,156 L 408,154 L 408,153 L 407,152 L 407,151 L 406,150 L 406,149 L 405,148 L 405,147 L 403,145 L 403,144 L 402,143 L 402,142 L 400,140 L 400,139 L 399,138 L 399,137 L 398,136 L 398,135 L 396,133 L 396,132 L 395,131 L 395,130 L 394,129 L 394,128 L 392,126 L 392,125 L 391,124 L 391,123 L 389,121 L 389,120 L 388,119 L 388,118 L 387,117 L 387,116 L 385,114 L 385,113 L 384,112 L 384,111 L 383,110 L 383,109 L 381,107 L 381,106 L 380,105 L 380,104 L 379,103 L 379,102 L 377,100 L 377,99 L 376,98 L 376,97 L 375,96 L 375,95 L 373,93 L 373,92 L 372,91 L 372,90 L 371,89 L 371,88 L 369,86 L 369,85 L 368,84 L 368,83 L 366,81 L 366,80 L 365,79 L 365,78 L 364,77 L 364,76 L 362,74 L 362,73 L 361,72 L 361,71 L 360,70 L 360,69 L 359,68 Z" fill="none" stroke="blue" stroke-width="3" /></svg>